<?xml version="1.0" encoding="UTF-8" standalone="no"?><svg xmlns="http://www.w3.org/2000/svg" xmlns:xlink="http://www.w3.org/1999/xlink" contentStyleType="text/css" height="939px" preserveAspectRatio="none" style="width:616px;height:939px;background:#FFFFFF;" version="1.1" viewBox="0 0 616 939" width="616px" zoomAndPan="magnify"><defs/><g><!--MD5=[ad7ca1b0a174a23ed2978b6ef95e68c6]
class Exercise--><g id="elem_Exercise"><rect codeLine="30" fill="#F1F1F1" height="162.0781" id="Exercise" rx="2.5" ry="2.5" style="stroke:#181818;stroke-width:0.5;" width="206" x="7" y="245"/><ellipse cx="76.75" cy="261" fill="#ADD1B2" rx="11" ry="11" style="stroke:#181818;stroke-width:1.0;"/><path d="M79.7188,266.6406 Q79.1406,266.9375 78.5,267.0781 Q77.8594,267.2344 77.1563,267.2344 Q74.6563,267.2344 73.3281,265.5938 Q72.0156,263.9375 72.0156,260.8125 Q72.0156,257.6875 73.3281,256.0313 Q74.6563,254.375 77.1563,254.375 Q77.8594,254.375 78.5,254.5313 Q79.1563,254.6875 79.7188,254.9844 L79.7188,257.7031 Q79.0938,257.125 78.5,256.8594 Q77.9063,256.5781 77.2813,256.5781 Q75.9375,256.5781 75.25,257.6563 Q74.5625,258.7188 74.5625,260.8125 Q74.5625,262.9063 75.25,263.9844 Q75.9375,265.0469 77.2813,265.0469 Q77.9063,265.0469 78.5,264.7813 Q79.0938,264.5 79.7188,263.9219 L79.7188,266.6406 Z " fill="#000000"/><text fill="#000000" font-family="sans-serif" font-size="14" lengthAdjust="spacing" textLength="58" x="97.25" y="265.8467">Exercise</text><line style="stroke:#181818;stroke-width:0.5;" x1="8" x2="212" y1="277" y2="277"/><text fill="#000000" font-family="sans-serif" font-size="14" lengthAdjust="spacing" textLength="55" x="13" y="293.9951">id: UUID</text><text fill="#000000" font-family="sans-serif" font-size="14" lengthAdjust="spacing" textLength="88" x="13" y="310.292">name: String</text><text fill="#000000" font-family="sans-serif" font-size="14" lengthAdjust="spacing" textLength="126" x="13" y="326.5889">description: String</text><text fill="#000000" font-family="sans-serif" font-size="14" lengthAdjust="spacing" textLength="194" x="13" y="342.8857">muscleGroup: MuscleGroup</text><text fill="#000000" font-family="sans-serif" font-size="14" lengthAdjust="spacing" textLength="130" x="13" y="359.1826">instructions: String</text><text fill="#000000" font-family="sans-serif" font-size="14" lengthAdjust="spacing" textLength="91" x="13" y="375.4795">image: String</text><text fill="#000000" font-family="sans-serif" font-size="14" lengthAdjust="spacing" textLength="86" x="13" y="391.7764">video: String</text><line style="stroke:#181818;stroke-width:0.5;" x1="8" x2="212" y1="399.0781" y2="399.0781"/></g><!--MD5=[fc8e523b649b2cc1820356ff39fff04a]
class MuscleGroup--><g id="elem_MuscleGroup"><rect codeLine="11" fill="#F1F1F1" height="308.75" id="MuscleGroup" rx="2.5" ry="2.5" style="stroke:#181818;stroke-width:0.5;" width="152" x="34" y="467"/><ellipse cx="61.6" cy="483" fill="#EB937F" rx="11" ry="11" style="stroke:#181818;stroke-width:1.0;"/><path d="M65.7094,489 L57.9906,489 L57.9906,476.6094 L65.7094,476.6094 L65.7094,478.7656 L60.4438,478.7656 L60.4438,481.4375 L65.2094,481.4375 L65.2094,483.5938 L60.4438,483.5938 L60.4438,486.8438 L65.7094,486.8438 L65.7094,489 Z " fill="#000000"/><text fill="#000000" font-family="sans-serif" font-size="14" lengthAdjust="spacing" textLength="92" x="78.4" y="487.8467">MuscleGroup</text><line style="stroke:#181818;stroke-width:0.5;" x1="35" x2="185" y1="499" y2="499"/><text fill="#000000" font-family="sans-serif" font-size="14" lengthAdjust="spacing" textLength="70" x="40" y="515.9951">DELTOIDS</text><text fill="#000000" font-family="sans-serif" font-size="14" lengthAdjust="spacing" textLength="50" x="40" y="532.292">BICEPS</text><text fill="#000000" font-family="sans-serif" font-size="14" lengthAdjust="spacing" textLength="70" x="40" y="548.5889">OBLIQUES</text><text fill="#000000" font-family="sans-serif" font-size="14" lengthAdjust="spacing" textLength="91" x="40" y="564.8857">QUADRICEPS</text><text fill="#000000" font-family="sans-serif" font-size="14" lengthAdjust="spacing" textLength="47" x="40" y="581.1826">CHEST</text><text fill="#000000" font-family="sans-serif" font-size="14" lengthAdjust="spacing" textLength="69" x="40" y="597.4795">FOREARM</text><text fill="#000000" font-family="sans-serif" font-size="14" lengthAdjust="spacing" textLength="28" x="40" y="613.7764">ABS</text><text fill="#000000" font-family="sans-serif" font-size="14" lengthAdjust="spacing" textLength="114" x="40" y="630.0732">ANKLE_FLEXORS</text><text fill="#000000" font-family="sans-serif" font-size="14" lengthAdjust="spacing" textLength="78" x="40" y="646.3701">TRAPEZIUS</text><text fill="#000000" font-family="sans-serif" font-size="14" lengthAdjust="spacing" textLength="98" x="40" y="662.667">MIDDLE_BACK</text><text fill="#000000" font-family="sans-serif" font-size="14" lengthAdjust="spacing" textLength="95" x="40" y="678.9639">LOWER_BACK</text><text fill="#000000" font-family="sans-serif" font-size="14" lengthAdjust="spacing" textLength="59" x="40" y="695.2607">TRICEPS</text><text fill="#000000" font-family="sans-serif" font-size="14" lengthAdjust="spacing" textLength="140" x="40" y="711.5576">BACK_OF_FOREARM</text><text fill="#000000" font-family="sans-serif" font-size="14" lengthAdjust="spacing" textLength="55" x="40" y="727.8545">GLUTES</text><text fill="#000000" font-family="sans-serif" font-size="14" lengthAdjust="spacing" textLength="92" x="40" y="744.1514">HAMSTRINGS</text><text fill="#000000" font-family="sans-serif" font-size="14" lengthAdjust="spacing" textLength="136" x="40" y="760.4482">ANKLE_EXTENSORS</text><line style="stroke:#181818;stroke-width:0.5;" x1="35" x2="185" y1="767.75" y2="767.75"/></g><!--MD5=[3fd616f346a44cd59a91eb10b19e157c]
class User--><g id="elem_User"><rect codeLine="46" fill="#F1F1F1" height="276.1563" id="User" rx="2.5" ry="2.5" style="stroke:#181818;stroke-width:0.5;" width="150" x="249" y="483.5"/><ellipse cx="303.75" cy="499.5" fill="#ADD1B2" rx="11" ry="11" style="stroke:#181818;stroke-width:1.0;"/><path d="M306.7188,505.1406 Q306.1406,505.4375 305.5,505.5781 Q304.8594,505.7344 304.1563,505.7344 Q301.6563,505.7344 300.3281,504.0938 Q299.0156,502.4375 299.0156,499.3125 Q299.0156,496.1875 300.3281,494.5313 Q301.6563,492.875 304.1563,492.875 Q304.8594,492.875 305.5,493.0313 Q306.1563,493.1875 306.7188,493.4844 L306.7188,496.2031 Q306.0938,495.625 305.5,495.3594 Q304.9063,495.0781 304.2813,495.0781 Q302.9375,495.0781 302.25,496.1563 Q301.5625,497.2188 301.5625,499.3125 Q301.5625,501.4063 302.25,502.4844 Q302.9375,503.5469 304.2813,503.5469 Q304.9063,503.5469 305.5,503.2813 Q306.0938,503 306.7188,502.4219 L306.7188,505.1406 Z " fill="#000000"/><text fill="#000000" font-family="sans-serif" font-size="14" lengthAdjust="spacing" textLength="32" x="324.25" y="504.3467">User</text><line style="stroke:#181818;stroke-width:0.5;" x1="250" x2="398" y1="515.5" y2="515.5"/><text fill="#000000" font-family="sans-serif" font-size="14" lengthAdjust="spacing" textLength="55" x="255" y="532.4951">id: UUID</text><text fill="#000000" font-family="sans-serif" font-size="14" lengthAdjust="spacing" textLength="88" x="255" y="548.792">name: String</text><text fill="#000000" font-family="sans-serif" font-size="14" lengthAdjust="spacing" textLength="85" x="255" y="565.0889">email: String</text><text fill="#000000" font-family="sans-serif" font-size="14" lengthAdjust="spacing" textLength="116" x="255" y="581.3857">password: String</text><text fill="#000000" font-family="sans-serif" font-size="14" lengthAdjust="spacing" textLength="66" x="255" y="597.6826">role: Role</text><text fill="#000000" font-family="sans-serif" font-size="14" lengthAdjust="spacing" textLength="70" x="255" y="613.9795">cpf: String</text><text fill="#000000" font-family="sans-serif" font-size="14" lengthAdjust="spacing" textLength="106" x="255" y="630.2764">birthDate: Date</text><text fill="#000000" font-family="sans-serif" font-size="14" lengthAdjust="spacing" textLength="94" x="255" y="646.5732">phone: String</text><text fill="#000000" font-family="sans-serif" font-size="14" lengthAdjust="spacing" textLength="105" x="255" y="662.8701">weight: Double</text><text fill="#000000" font-family="sans-serif" font-size="14" lengthAdjust="spacing" textLength="103" x="255" y="679.167">height: Double</text><text fill="#000000" font-family="sans-serif" font-size="14" lengthAdjust="spacing" textLength="138" x="255" y="695.4639">observations: String</text><text fill="#000000" font-family="sans-serif" font-size="14" lengthAdjust="spacing" textLength="92" x="255" y="711.7607">confef: String</text><text fill="#000000" font-family="sans-serif" font-size="14" lengthAdjust="spacing" textLength="91" x="255" y="728.0576">image: String</text><text fill="#000000" font-family="sans-serif" font-size="14" lengthAdjust="spacing" textLength="118" x="255" y="744.3545">isActive: Boolean</text><line style="stroke:#181818;stroke-width:0.5;" x1="250" x2="398" y1="751.6563" y2="751.6563"/></g><!--MD5=[a3638c1e5b65d287ecad7f06f5c0f212]
class Role--><g id="elem_Role"><rect codeLine="40" fill="#F1F1F1" height="96.8906" id="Role" rx="2.5" ry="2.5" style="stroke:#181818;stroke-width:0.5;" width="93" x="277.5" y="836"/><ellipse cx="306" cy="852" fill="#EB937F" rx="11" ry="11" style="stroke:#181818;stroke-width:1.0;"/><path d="M310.1094,858 L302.3906,858 L302.3906,845.6094 L310.1094,845.6094 L310.1094,847.7656 L304.8438,847.7656 L304.8438,850.4375 L309.6094,850.4375 L309.6094,852.5938 L304.8438,852.5938 L304.8438,855.8438 L310.1094,855.8438 L310.1094,858 Z " fill="#000000"/><text fill="#000000" font-family="sans-serif" font-size="14" lengthAdjust="spacing" textLength="31" x="323" y="856.8467">Role</text><line style="stroke:#181818;stroke-width:0.5;" x1="278.5" x2="369.5" y1="868" y2="868"/><text fill="#000000" font-family="sans-serif" font-size="14" lengthAdjust="spacing" textLength="45" x="283.5" y="884.9951">ADMIN</text><text fill="#000000" font-family="sans-serif" font-size="14" lengthAdjust="spacing" textLength="81" x="283.5" y="901.292">INSTUCTOR</text><text fill="#000000" font-family="sans-serif" font-size="14" lengthAdjust="spacing" textLength="48" x="283.5" y="917.5889">CLIENT</text><line style="stroke:#181818;stroke-width:0.5;" x1="278.5" x2="369.5" y1="924.8906" y2="924.8906"/></g><!--MD5=[0112507363fcbd1648e7214e2e3e8fb3]
class WorkoutSheet--><g id="elem_WorkoutSheet"><rect codeLine="63" fill="#F1F1F1" height="162.0781" id="WorkoutSheet" rx="2.5" ry="2.5" style="stroke:#181818;stroke-width:0.5;" width="207" x="248.5" y="245"/><ellipse cx="298.25" cy="261" fill="#ADD1B2" rx="11" ry="11" style="stroke:#181818;stroke-width:1.0;"/><path d="M301.2188,266.6406 Q300.6406,266.9375 300,267.0781 Q299.3594,267.2344 298.6563,267.2344 Q296.1563,267.2344 294.8281,265.5938 Q293.5156,263.9375 293.5156,260.8125 Q293.5156,257.6875 294.8281,256.0313 Q296.1563,254.375 298.6563,254.375 Q299.3594,254.375 300,254.5313 Q300.6563,254.6875 301.2188,254.9844 L301.2188,257.7031 Q300.5938,257.125 300,256.8594 Q299.4063,256.5781 298.7813,256.5781 Q297.4375,256.5781 296.75,257.6563 Q296.0625,258.7188 296.0625,260.8125 Q296.0625,262.9063 296.75,263.9844 Q297.4375,265.0469 298.7813,265.0469 Q299.4063,265.0469 300,264.7813 Q300.5938,264.5 301.2188,263.9219 L301.2188,266.6406 Z " fill="#000000"/><text fill="#000000" font-family="sans-serif" font-size="14" lengthAdjust="spacing" textLength="99" x="318.75" y="265.8467">WorkoutSheet</text><line style="stroke:#181818;stroke-width:0.5;" x1="249.5" x2="454.5" y1="277" y2="277"/><text fill="#000000" font-family="sans-serif" font-size="14" lengthAdjust="spacing" textLength="55" x="254.5" y="293.9951">id: UUID</text><text fill="#000000" font-family="sans-serif" font-size="14" lengthAdjust="spacing" textLength="88" x="254.5" y="310.292">name: String</text><text fill="#000000" font-family="sans-serif" font-size="14" lengthAdjust="spacing" textLength="106" x="254.5" y="326.5889">startDate: Date</text><text fill="#000000" font-family="sans-serif" font-size="14" lengthAdjust="spacing" textLength="102" x="254.5" y="342.8857">endDate: Date</text><text fill="#000000" font-family="sans-serif" font-size="14" lengthAdjust="spacing" textLength="107" x="254.5" y="359.1826">instructor: User</text><text fill="#000000" font-family="sans-serif" font-size="14" lengthAdjust="spacing" textLength="78" x="254.5" y="375.4795">client: User</text><text fill="#000000" font-family="sans-serif" font-size="14" lengthAdjust="spacing" textLength="195" x="254.5" y="391.7764">status: WorkoutSheetStatus</text><line style="stroke:#181818;stroke-width:0.5;" x1="249.5" x2="454.5" y1="399.0781" y2="399.0781"/></g><!--MD5=[610268bfd61f0c7f7f018d03da7919c7]
class WorkoutSheetStatus--><g id="elem_WorkoutSheetStatus"><rect codeLine="73" fill="#F1F1F1" height="80.5938" id="WorkoutSheetStatus" rx="2.5" ry="2.5" style="stroke:#181818;stroke-width:0.5;" width="175" x="434.5" y="581"/><ellipse cx="449.5" cy="597" fill="#EB937F" rx="11" ry="11" style="stroke:#181818;stroke-width:1.0;"/><path d="M453.6094,603 L445.8906,603 L445.8906,590.6094 L453.6094,590.6094 L453.6094,592.7656 L448.3438,592.7656 L448.3438,595.4375 L453.1094,595.4375 L453.1094,597.5938 L448.3438,597.5938 L448.3438,600.8438 L453.6094,600.8438 L453.6094,603 Z " fill="#000000"/><text fill="#000000" font-family="sans-serif" font-size="14" lengthAdjust="spacing" textLength="143" x="463.5" y="601.8467">WorkoutSheetStatus</text><line style="stroke:#181818;stroke-width:0.5;" x1="435.5" x2="608.5" y1="613" y2="613"/><text fill="#000000" font-family="sans-serif" font-size="14" lengthAdjust="spacing" textLength="49" x="440.5" y="629.9951">ACTIVE</text><text fill="#000000" font-family="sans-serif" font-size="14" lengthAdjust="spacing" textLength="63" x="440.5" y="646.292">FINISHED</text><line style="stroke:#181818;stroke-width:0.5;" x1="435.5" x2="608.5" y1="653.5938" y2="653.5938"/></g><!--MD5=[f8778037f1b2103ef58d96999396e27c]
class Workout--><g id="elem_Workout"><rect codeLine="78" fill="#F1F1F1" height="178.375" id="Workout" rx="2.5" ry="2.5" style="stroke:#181818;stroke-width:0.5;" width="217" x="122.5" y="7"/><ellipse cx="197.75" cy="23" fill="#ADD1B2" rx="11" ry="11" style="stroke:#181818;stroke-width:1.0;"/><path d="M200.7188,28.6406 Q200.1406,28.9375 199.5,29.0781 Q198.8594,29.2344 198.1563,29.2344 Q195.6563,29.2344 194.3281,27.5938 Q193.0156,25.9375 193.0156,22.8125 Q193.0156,19.6875 194.3281,18.0313 Q195.6563,16.375 198.1563,16.375 Q198.8594,16.375 199.5,16.5313 Q200.1563,16.6875 200.7188,16.9844 L200.7188,19.7031 Q200.0938,19.125 199.5,18.8594 Q198.9063,18.5781 198.2813,18.5781 Q196.9375,18.5781 196.25,19.6563 Q195.5625,20.7188 195.5625,22.8125 Q195.5625,24.9063 196.25,25.9844 Q196.9375,27.0469 198.2813,27.0469 Q198.9063,27.0469 199.5,26.7813 Q200.0938,26.5 200.7188,25.9219 L200.7188,28.6406 Z " fill="#000000"/><text fill="#000000" font-family="sans-serif" font-size="14" lengthAdjust="spacing" textLength="58" x="218.25" y="27.8467">Workout</text><line style="stroke:#181818;stroke-width:0.5;" x1="123.5" x2="338.5" y1="39" y2="39"/><text fill="#000000" font-family="sans-serif" font-size="14" lengthAdjust="spacing" textLength="55" x="128.5" y="55.9951">id: UUID</text><text fill="#000000" font-family="sans-serif" font-size="14" lengthAdjust="spacing" textLength="88" x="128.5" y="72.292">load: Double</text><text fill="#000000" font-family="sans-serif" font-size="14" lengthAdjust="spacing" textLength="132" x="128.5" y="88.5889">repetitions: Integer</text><text fill="#000000" font-family="sans-serif" font-size="14" lengthAdjust="spacing" textLength="100" x="128.5" y="104.8857">series: Integer</text><text fill="#000000" font-family="sans-serif" font-size="14" lengthAdjust="spacing" textLength="85" x="128.5" y="121.1826">rest: Integer</text><text fill="#000000" font-family="sans-serif" font-size="14" lengthAdjust="spacing" textLength="138" x="128.5" y="137.4795">observations: String</text><text fill="#000000" font-family="sans-serif" font-size="14" lengthAdjust="spacing" textLength="125" x="128.5" y="153.7764">exercise: Exercise</text><text fill="#000000" font-family="sans-serif" font-size="14" lengthAdjust="spacing" textLength="205" x="128.5" y="170.0732">workoutSheet: WorkoutSheet</text><line style="stroke:#181818;stroke-width:0.5;" x1="123.5" x2="338.5" y1="177.375" y2="177.375"/></g><!--MD5=[6d0b31d7f3c074ad08c2982ef6ff809b]
link Exercise to MuscleGroup--><g id="link_Exercise_MuscleGroup"><path codeLine="2" d="M110,407.2 C110,425.79 110,446.18 110,466.75 " fill="none" id="Exercise-MuscleGroup" style="stroke:#181818;stroke-width:1.0;"/></g><!--MD5=[70c37dc9bfbc8656942103c36f1181e4]
link User to Role--><g id="link_User_Role"><path codeLine="3" d="M324,759.88 C324,787.27 324,814.25 324,835.98 " fill="none" id="User-Role" style="stroke:#181818;stroke-width:1.0;"/></g><!--MD5=[554935ab9c0e8353551062f44bc1c5ac]
link WorkoutSheet to User--><g id="link_WorkoutSheet_User"><path codeLine="5" d="M344.35,407.2 C342.1,430.79 339.57,457.3 337.08,483.39 " fill="none" id="WorkoutSheet-User" style="stroke:#181818;stroke-width:1.0;"/></g><!--MD5=[be5e7b48a4defa863f37453b6c349c9f]
link WorkoutSheet to WorkoutSheetStatus--><g id="link_WorkoutSheet_WorkoutSheetStatus"><path codeLine="6" d="M398.45,407.2 C431.09,463.55 473.35,536.51 499.03,580.84 " fill="none" id="WorkoutSheet-WorkoutSheetStatus" style="stroke:#181818;stroke-width:1.0;"/></g><!--MD5=[4f656583278ea3611f01ad1dfce974fd]
link Workout to Exercise--><g id="link_Workout_Exercise"><path codeLine="8" d="M184.22,185.15 C173.78,204.82 162.76,225.58 152.5,244.91 " fill="none" id="Workout-Exercise" style="stroke:#181818;stroke-width:1.0;"/></g><!--MD5=[ed5b46f7d05e69c2e2fd48cf2b2d9810]
link Workout to WorkoutSheet--><g id="link_Workout_WorkoutSheet"><path codeLine="9" d="M277.78,185.15 C288.22,204.82 299.24,225.58 309.5,244.91 " fill="none" id="Workout-WorkoutSheet" style="stroke:#181818;stroke-width:1.0;"/></g><!--MD5=[d3ecda6860a09ac99712234cb0e6713a]
@startuml SmartGym

Exercise - - MuscleGroup
User - - Role

WorkoutSheet - - User
WorkoutSheet - - WorkoutSheetStatus

Workout - - Exercise
Workout - - WorkoutSheet

enum MuscleGroup {
    DELTOIDS
    BICEPS
    OBLIQUES
    QUADRICEPS
    CHEST
    FOREARM
    ABS
    ANKLE_FLEXORS
    TRAPEZIUS
    MIDDLE_BACK
    LOWER_BACK
    TRICEPS
    BACK_OF_FOREARM
    GLUTES
    HAMSTRINGS
    ANKLE_EXTENSORS
}

class Exercise {
    id: UUID
    name: String
    description: String
    muscleGroup: MuscleGroup
    instructions: String
    image: String
    video: String
}

enum Role {
    ADMIN
    INSTUCTOR
    CLIENT
}

class User {
    id: UUID
    name: String
    email: String
    password: String
    role: Role
    cpf: String
    birthDate: Date
    phone: String
    weight: Double
    height: Double
    observations: String
    confef: String
    image: String
    isActive: Boolean
}

class WorkoutSheet {
    id: UUID
    name: String
    startDate: Date
    endDate: Date
    instructor: User
    client: User
    status: WorkoutSheetStatus
}

enum WorkoutSheetStatus {
    ACTIVE
    FINISHED    
}

class Workout {
    id: UUID
    load: Double
    repetitions: Integer
    series: Integer
    rest: Integer
    observations: String
    exercise: Exercise
    workoutSheet: WorkoutSheet
}

@enduml

PlantUML version 1.2022.7(Mon Aug 22 14:01:30 BRT 2022)
(GPL source distribution)
Java Runtime: OpenJDK Runtime Environment
JVM: OpenJDK 64-Bit Server VM
Default Encoding: UTF-8
Language: en
Country: null
--></g></svg>